<svg width="368" height="57" viewBox="0 0 368 57" fill="none" xmlns="http://www.w3.org/2000/svg">
<path d="M70.196 7.09088H76.3977L90.9801 42.7088H91.483L106.065 7.09088H112.267V50H107.406V17.3991H106.987L93.5781 50H88.8849L75.4759 17.3991H75.0568V50H70.196V7.09088Z" fill="black"/>
<path d="M124.445 50H118.998L134.753 7.09088H140.117L155.873 50H150.425L137.603 13.8792H137.268L124.445 50ZM126.457 33.2386H148.414V37.848H126.457V33.2386Z" fill="black"/>
<path d="M155.197 11.7003V7.09088H187.379V11.7003H173.886V50H168.69V11.7003H155.197Z" fill="black"/>
<path d="M195.398 50V7.09088H209.897C213.249 7.09088 216.001 7.66356 218.152 8.80892C220.303 9.94031 221.895 11.4977 222.929 13.4812C223.962 15.4646 224.479 17.7204 224.479 20.2486C224.479 22.7767 223.962 25.0186 222.929 26.974C221.895 28.9295 220.31 30.466 218.173 31.5834C216.036 32.6869 213.305 33.2386 209.981 33.2386H198.248V28.5454H209.813C212.104 28.5454 213.947 28.2102 215.344 27.5397C216.755 26.8693 217.775 25.9195 218.403 24.6903C219.046 23.4472 219.367 21.9666 219.367 20.2486C219.367 18.5305 219.046 17.029 218.403 15.7439C217.761 14.4589 216.734 13.4672 215.323 12.7688C213.912 12.0564 212.048 11.7003 209.729 11.7003H200.594V50H195.398ZM215.596 30.7244L226.155 50H220.121L209.729 30.7244H215.596Z" fill="black"/>
<path d="M238.333 7.09088V50H233.137V7.09088H238.333Z" fill="black"/>
<path d="M251.266 7.09088L262.328 24.9417H262.664L273.726 7.09088H279.844L266.351 28.5454L279.844 50H273.726L262.664 32.4843H262.328L251.266 50H245.148L258.976 28.5454L245.148 7.09088H251.266Z" fill="black"/>
<path d="M286.831 34.9986C285.798 34.9986 284.911 34.6284 284.171 33.8881C283.43 33.1478 283.06 32.2609 283.06 31.2272C283.06 30.1936 283.43 29.3067 284.171 28.5664C284.911 27.8261 285.798 27.4559 286.831 27.4559C287.865 27.4559 288.752 27.8261 289.492 28.5664C290.233 29.3067 290.603 30.1936 290.603 31.2272C290.603 31.9117 290.428 32.5402 290.079 33.1129C289.744 33.6856 289.29 34.1465 288.717 34.4957C288.158 34.8309 287.53 34.9986 286.831 34.9986Z" fill="black"/>
<path d="M313.388 50H300.146V7.09088H313.974C318.137 7.09088 321.699 7.9499 324.66 9.66794C327.621 11.372 329.891 13.8234 331.469 17.022C333.047 20.2066 333.837 24.0199 333.837 28.4616C333.837 32.9313 333.04 36.7794 331.448 40.006C329.856 43.2186 327.537 45.6909 324.492 47.4229C321.447 49.141 317.746 50 313.388 50ZM305.342 45.3906H313.052C316.6 45.3906 319.541 44.7062 321.873 43.3373C324.206 41.9685 325.945 40.02 327.09 37.4918C328.235 34.9636 328.808 31.9536 328.808 28.4616C328.808 24.9976 328.242 22.0155 327.111 19.5152C325.98 17.001 324.29 15.0735 322.041 13.7326C319.792 12.3777 316.991 11.7003 313.639 11.7003H305.342V45.3906Z" fill="black"/>
<path d="M342.552 50V7.09088H347.748V45.3906H367.695V50H342.552Z" fill="black"/>
<path d="M52.7832 49.497L28.7774 42.5373L28.9166 42.0573L28.7774 42.5373C28.6061 42.4876 28.3938 42.4876 28.2224 42.5373L4.21675 49.497C4.21331 49.498 4.20992 49.499 4.20659 49.5C4.20992 49.501 4.21331 49.502 4.21675 49.503L28.2226 56.4627C28.3939 56.5124 28.6061 56.5124 28.7774 56.4627L52.7832 49.503L52.9225 49.9832L52.7832 49.503C52.7867 49.502 52.7901 49.501 52.7934 49.5C52.7901 49.499 52.7867 49.498 52.7832 49.497Z" fill="black" stroke="black"/>
<path d="M52.7832 7.49695L28.7774 0.537257L28.9166 0.0572969L28.7774 0.537257C28.6061 0.487581 28.3938 0.487581 28.2224 0.537257L4.21675 7.49695C4.21331 7.49795 4.20992 7.49896 4.20659 7.49997C4.20992 7.50098 4.21331 7.50198 4.21675 7.50298L28.2226 14.4627C28.3939 14.5124 28.6061 14.5124 28.7774 14.4627L52.7832 7.50298L52.9225 7.9832L52.7832 7.50298C52.7867 7.50198 52.7901 7.50098 52.7934 7.49997C52.7901 7.49896 52.7867 7.49795 52.7832 7.49695Z" fill="black" stroke="black"/>
<path d="M55.8506 9.53547L55.7111 9.05541L55.8506 9.53546C56.0424 9.47971 56.2566 9.49397 56.4085 9.54854C56.4509 9.56378 56.4806 9.57933 56.5 9.59155V26.4085C56.4806 26.4207 56.451 26.4362 56.4086 26.4515C56.2567 26.506 56.0424 26.5203 55.8506 26.4645L54.0694 25.9468C54.005 25.9281 53.9626 25.9065 53.9375 25.8902V12.6248C53.9375 12.1001 53.4852 11.822 53.1842 11.7139C52.8396 11.5901 52.4094 11.5653 52.009 11.6817L28.7588 18.4396C28.5992 18.486 28.4009 18.486 28.2413 18.4396L4.99104 11.6817C4.99103 11.6817 4.99102 11.6817 4.99101 11.6817C4.59063 11.5653 4.1604 11.5901 3.81587 11.7139C3.51487 11.822 3.0625 12.1001 3.0625 12.6248V25.8902C3.03742 25.9065 2.99504 25.9281 2.93065 25.9468L1.1494 26.4645C0.957531 26.5203 0.743289 26.506 0.59142 26.4515C0.549025 26.4362 0.519362 26.4207 0.5 26.4085V9.59153C0.519366 9.57931 0.549034 9.56377 0.591434 9.54854C0.743313 9.49397 0.95755 9.47971 1.1494 9.53547L27.9621 17.3289C28.304 17.4283 28.6959 17.4283 29.0378 17.3289L55.8506 9.53547Z" fill="black" stroke="black"/>
<path d="M55.8506 47.4645L55.7111 47.9446L55.8506 47.4645C56.0424 47.5203 56.2566 47.506 56.4085 47.4515C56.4509 47.4362 56.4806 47.4207 56.5 47.4084V30.5915C56.4806 30.5793 56.451 30.5638 56.4086 30.5485C56.2567 30.494 56.0424 30.4797 55.8506 30.5355L54.0694 31.0532C54.005 31.0719 53.9626 31.0935 53.9375 31.1098V44.3752C53.9375 44.8999 53.4852 45.178 53.1842 45.2861C52.8396 45.4099 52.4094 45.4347 52.009 45.3183L28.7588 38.5604C28.5992 38.514 28.4009 38.514 28.2413 38.5604L4.99104 45.3183C4.99103 45.3183 4.99102 45.3183 4.99101 45.3183C4.59063 45.4347 4.1604 45.4099 3.81587 45.2861C3.51487 45.178 3.0625 44.8999 3.0625 44.3752V31.1098C3.03742 31.0935 2.99504 31.0719 2.93065 31.0532L1.1494 30.5355C0.957531 30.4797 0.743289 30.494 0.59142 30.5485C0.549025 30.5638 0.519362 30.5793 0.5 30.5915V47.4085C0.519366 47.4207 0.549034 47.4362 0.591434 47.4515C0.743313 47.506 0.95755 47.5203 1.1494 47.4645L27.9621 39.6711C28.304 39.5717 28.6959 39.5717 29.0378 39.6711L55.8506 47.4645Z" fill="black" stroke="black"/>
<path d="M8.3125 18L8.3125 39" stroke="black" stroke-width="4" stroke-linecap="round"/>
<path d="M8.3125 18L19 21" stroke="black" stroke-width="4" stroke-linecap="round"/>
<path d="M19 36L13.6563 37.5L8.3125 39" stroke="black" stroke-width="4" stroke-linecap="round"/>
<path d="M19 21V36" stroke="black" stroke-width="4" stroke-linecap="round"/>
<path d="M40.375 20V37" stroke="black" stroke-width="4" stroke-linecap="round"/>
<path d="M40.375 37L48.6875 39" stroke="black" stroke-width="4" stroke-linecap="round"/>
</svg>
