<svg width="407" height="114" viewBox="0 0 407 114" fill="none" xmlns="http://www.w3.org/2000/svg">
<rect width="407" height="114" fill="#1E1E1E"/>
<g clip-path="url(#clip0_0_1)">
<path d="M26.1198 67.9883V38.9786C26.1198 38.3204 26.8124 37.8923 27.4012 38.1867L54.0571 51.5146C54.3064 51.6393 54.5998 51.6393 54.849 51.5146L81.505 38.1867C82.0937 37.8923 82.7865 38.3204 82.7865 38.9786V67.9883C82.7865 68.6465 82.0938 69.0746 81.505 68.7802L79.7342 67.8947C79.4343 67.7448 79.2448 67.4382 79.2448 67.1028V44.2911C79.2448 43.6329 78.5522 43.2048 77.9634 43.4992L54.8491 55.0563C54.5999 55.1809 54.3065 55.1809 54.0572 55.0563L30.9429 43.4992C30.3542 43.2048 29.6615 43.6329 29.6615 44.2911V67.1028C29.6615 67.4382 29.472 67.7448 29.172 67.8947L27.4012 68.7802C26.8124 69.0746 26.1198 68.6466 26.1198 67.9883Z" fill="white"/>
<path d="M54.8491 57.2232C54.5999 57.0985 54.3065 57.0985 54.0572 57.2232L52.6823 57.9106L27.7037 70.3998C27.0511 70.7261 27.0511 71.6574 27.7037 71.9837L54.0571 85.1605C54.3064 85.2851 54.5998 85.2851 54.849 85.1605L81.2025 71.9837C81.855 71.6574 81.855 70.7261 81.2025 70.3998L56.2242 57.9107L54.8491 57.2232Z" fill="white"/>
<path d="M54.0571 23.5773L31.2453 34.9831C30.5928 35.3094 30.5928 36.2408 31.2453 36.567L54.0571 47.973C54.3063 48.0976 54.5997 48.0976 54.849 47.973L77.6607 36.567C78.3133 36.2408 78.3133 35.3094 77.6607 34.9831L54.8491 23.5773C54.5998 23.4527 54.3063 23.4527 54.0571 23.5773Z" fill="white"/>
<path d="M48.25 78H43.7614V63.4545H48.4489C49.8598 63.4545 51.0672 63.7457 52.071 64.3281C53.0748 64.9058 53.8442 65.7367 54.3793 66.821C54.9143 67.9006 55.1818 69.1932 55.1818 70.6989C55.1818 72.214 54.9119 73.5185 54.3722 74.6122C53.8324 75.7012 53.0464 76.5393 52.0142 77.1264C50.982 77.7088 49.7273 78 48.25 78ZM45.5227 76.4375H48.1364C49.339 76.4375 50.3357 76.2055 51.1264 75.7415C51.9171 75.2775 52.5066 74.617 52.8949 73.7599C53.2831 72.9029 53.4773 71.8826 53.4773 70.6989C53.4773 69.5246 53.2855 68.5137 52.902 67.6662C52.5185 66.8139 51.9455 66.1605 51.1832 65.706C50.4209 65.2467 49.4716 65.017 48.3352 65.017H45.5227V76.4375ZM58.1364 78V63.4545H59.8977V76.4375H66.6591V78H58.1364Z" fill="black"/>
<path d="M114.874 71.8038V73.185C114.874 73.674 114.477 74.0704 113.988 74.0704H111.226C110.737 74.0704 110.341 73.674 110.341 73.185V71.8038V33.271V31.8898C110.341 31.4009 110.737 31.0044 111.226 31.0044H113.512C113.859 31.0044 114.173 31.2062 114.317 31.521L114.704 32.3644L128.795 64.3512C129.106 65.0563 130.107 65.0557 130.416 64.3501L144.454 32.3644L144.84 31.521C144.984 31.2062 145.299 31.0044 145.645 31.0044H147.931C148.42 31.0044 148.817 31.4009 148.817 31.8898V33.271L148.873 71.8038V73.185C148.873 73.674 148.477 74.0704 147.988 74.0704H145.225C144.737 74.0704 144.34 73.674 144.34 73.185V71.8038L144.292 48.2381C144.29 47.2804 142.981 47.0072 142.596 47.8841L131.704 72.7104L131.317 73.5539C131.173 73.8687 130.858 74.0704 130.512 74.0704H128.702C128.356 74.0704 128.041 73.8687 127.897 73.554L127.51 72.7104L116.569 47.885C116.183 47.0086 114.874 47.2842 114.874 48.242V71.8038H114.874Z" fill="white"/>
<path d="M184.619 64.493H163.207C162.856 64.493 162.538 64.7003 162.397 65.0215L159.01 72.7095L158.623 73.553C158.479 73.8678 158.165 74.0695 157.818 74.0695H154.8C154.164 74.0695 153.735 73.4196 153.986 72.8354L154.817 70.8962L171.817 32.3634L172.203 31.5199C172.347 31.2052 172.662 31.0034 173.008 31.0034H174.818C175.165 31.0034 175.479 31.2052 175.623 31.5199L176.01 32.3634L193.01 70.8962L193.841 72.8354C194.091 73.4196 193.662 74.0695 193.027 74.0695H190.008C189.662 74.0695 189.347 73.8678 189.203 73.553L188.816 72.7095L185.429 65.0215C185.288 64.7003 184.97 64.493 184.619 64.493ZM182.652 58.7174L174.723 40.7193C174.413 40.0147 173.413 40.0147 173.103 40.7193L165.174 58.7174C164.916 59.3027 165.345 59.9598 165.984 59.9598H181.842C182.482 59.9598 182.91 59.3027 182.652 58.7174Z" fill="white"/>
<path d="M211.263 31.0034H223.106H224.487C224.976 31.0034 225.373 31.3999 225.373 31.8888V34.6512C225.373 35.1402 224.976 35.5366 224.487 35.5366H223.106H212.148C211.659 35.5366 211.263 35.9331 211.263 36.4221V71.8029V73.1841C211.263 73.6731 210.866 74.0695 210.377 74.0695H207.615C207.126 74.0695 206.73 73.6731 206.73 73.1841V71.8029V36.4222C206.73 35.9332 206.333 35.5368 205.844 35.5368H194.773H193.392C192.903 35.5368 192.506 35.1403 192.506 34.6513V31.8889C192.506 31.4 192.903 31.0035 193.392 31.0035H194.773H206.73H211.263V31.0034Z" fill="white"/>
<path d="M242.671 54.6984L236.86 54.7699C236.617 54.7729 236.422 54.9701 236.422 55.2125V71.8029V73.6269C236.422 73.8714 236.224 74.0695 235.98 74.0695H232.332C232.087 74.0695 231.889 73.8713 231.889 73.6269V71.8029L231.914 54.8032H231.889V50.27H231.921C231.929 44.6222 231.938 38.9746 231.946 33.3269V31.5028C231.946 31.2583 232.144 31.0602 232.389 31.0602H234.212L250.306 31.0035C259.98 31.0035 263.679 37.0101 263.622 43.0166C263.675 48.661 258.357 54.6007 249.251 54.5731L249.242 54.5735C248.875 54.5921 248.689 55.0248 248.929 55.3039L264.555 73.5085C264.801 73.7956 264.597 74.2394 264.219 74.2394H259.297C259.165 74.2394 259.04 74.1808 258.956 74.0793L243.017 54.8584C242.932 54.7556 242.805 54.6968 242.671 54.6984ZM236.422 49.7938C236.422 50.0404 236.624 50.2394 236.871 50.2364L247.982 50.0999C254.889 49.9522 259.146 46.53 259.089 43.0166C259.146 38.3701 256.605 35.5273 250.306 35.5368H236.865C236.621 35.5368 236.423 35.735 236.423 35.9794V49.7938H236.422Z" fill="white"/>
<path d="M270.195 33.2701V31.8889C270.195 31.4 270.592 31.0035 271.081 31.0035H273.843C274.332 31.0035 274.728 31.4 274.728 31.8889V33.2701V71.8029V73.1841C274.728 73.6731 274.332 74.0695 273.843 74.0695H271.081C270.592 74.0695 270.195 73.6731 270.195 73.1841V71.8029V33.2701Z" fill="white"/>
<path d="M295.764 46.7565C296.117 47.2562 296.858 47.2562 297.211 46.7565L307.651 31.9668L308.066 31.3783C308.232 31.1432 308.502 31.0034 308.789 31.0034H312.186C312.901 31.0034 313.321 31.8089 312.912 32.3958L311.391 34.5734L299.638 51.2231C299.422 51.5293 299.422 51.9382 299.638 52.2443L312.524 70.4995L314.045 72.6771C314.455 73.264 314.035 74.0695 313.319 74.0695H309.923C309.635 74.0695 309.365 73.9297 309.199 73.6948L308.784 73.1062L297.211 56.7109C296.858 56.2112 296.117 56.2112 295.764 56.7109L284.191 73.1062L283.776 73.6947C283.61 73.9298 283.34 74.0695 283.052 74.0695H279.656C278.94 74.0695 278.52 73.264 278.93 72.6771L280.451 70.4995L293.337 52.2443C293.553 51.9382 293.553 51.5293 293.337 51.2231L281.584 34.5734L280.063 32.3958C279.653 31.8089 280.073 31.0034 280.789 31.0034H284.185C284.473 31.0034 284.743 31.1432 284.909 31.3782L285.324 31.9666L295.764 46.7565Z" fill="white"/>
</g>
<path d="M326.129 58.9986C325.096 58.9986 324.209 58.6284 323.468 57.8881C322.728 57.1478 322.358 56.2609 322.358 55.2273C322.358 54.1937 322.728 53.3067 323.468 52.5664C324.209 51.8261 325.096 51.456 326.129 51.456C327.163 51.456 328.05 51.8261 328.79 52.5664C329.53 53.3067 329.901 54.1937 329.901 55.2273C329.901 55.9117 329.726 56.5402 329.377 57.1129C329.042 57.6856 328.588 58.1465 328.015 58.4957C327.456 58.831 326.828 58.9986 326.129 58.9986ZM352.686 74H339.444V31.0909H353.272C357.435 31.0909 360.996 31.9499 363.958 33.668C366.919 35.372 369.189 37.8234 370.767 41.022C372.345 44.2067 373.134 48.0199 373.134 52.4616C373.134 56.9313 372.338 60.7795 370.746 64.006C369.154 67.2186 366.835 69.6909 363.79 71.4229C360.745 73.141 357.044 74 352.686 74ZM344.64 69.3906H352.35C355.898 69.3906 358.838 68.7062 361.171 67.3374C363.504 65.9685 365.243 64.02 366.388 61.4918C367.533 58.9637 368.106 55.9536 368.106 52.4616C368.106 48.9976 367.54 46.0155 366.409 43.5153C365.278 41.0011 363.587 39.0735 361.339 37.7326C359.09 36.3777 356.289 35.7003 352.937 35.7003H344.64V69.3906ZM381.85 74V31.0909H387.046V69.3906H406.992V74H381.85Z" fill="white"/>
<defs>
<clipPath id="clip0_0_1">
<rect width="340" height="113.333" fill="white"/>
</clipPath>
</defs>
</svg>
